<svg xmlns="http://www.w3.org/2000/svg" viewBox="0 0 302.41 422.83"><title>Feature logo</title><path d="M291.26,16.31A46.46,46.46,0,0,0,255.89,0H46.52A46.57,46.57,0,0,0,0,46.52v355a21.28,21.28,0,0,0,37.2,14.12L149.49,289.09h75.35a46.31,46.31,0,0,0,45.95-39.24l31-196a46.46,46.46,0,0,0-10.58-37.49m-52,102.44H139.72c-11.93,0-22,9.76-21.75,21.69a21.28,21.28,0,0,0,21.28,20.87h90a10.66,10.66,0,0,1,10.53,12.32L229.7,237.57a10.66,10.66,0,0,1-10.53,9l-79.25,0A21.28,21.28,0,0,0,124,253.69L42.56,345.49v-299a4,4,0,0,1,4-4H247.2a10.66,10.66,0,0,1,10.55,12.19l-8,54.88a10.65,10.65,0,0,1-10.54,9.13" transform="translate(0 0)" style="fill:#ff4175"/></svg>